<?xml version="1.0" encoding="iso-8859-1"?>
<!-- Generator: Adobe Illustrator 19.0.0, SVG Export Plug-In . SVG Version: 6.00 Build 0)  -->
<svg version="1.1" id="Layer_1" xmlns="http://www.w3.org/2000/svg" xmlns:xlink="http://www.w3.org/1999/xlink" x="0px" y="0px"
	 viewBox="0 0 395.447 395.447" style="enable-background:new 0 0 395.447 395.447;" xml:space="preserve">
<g>
	<g>
		<g>
			<path d="M348.506,356.893c-0.859-1.508-2.164-2.607-3.656-3.222c-26.063-15.945-47.886-38.329-63.153-64.792
				c-15.917-27.589-24.33-59.11-24.33-91.157c0-10.007,0.814-20.031,2.42-29.792c0.672-4.087-2.096-7.946-6.183-8.618
				c-4.086-0.67-7.945,2.096-8.618,6.183c-1.739,10.565-2.62,21.408-2.62,32.228c0,34.674,9.107,68.788,26.337,98.653
				c14.599,25.305,34.737,47.161,58.687,63.806c-25.767,13.291-54.461,20.266-83.709,20.266
				c-100.755,0-182.724-81.97-182.724-182.724S142.926,15,243.681,15c29.244,0,57.937,6.974,83.703,20.263
				c-25.094,17.426-45.923,40.502-60.681,67.346c-1.996,3.63-0.671,8.19,2.959,10.186c3.63,1.996,8.19,0.67,10.186-2.959
				c15.35-27.921,37.808-51.432,64.99-68.055c1.478-0.606,2.774-1.687,3.637-3.173c2.052-3.537,0.893-8.066-2.606-10.182
				C315.123,9.83,279.787,0,243.681,0C134.655,0,45.957,88.697,45.957,197.723s88.699,197.724,197.724,197.724
				c36.107,0,71.443-9.829,102.189-28.426C349.348,364.917,350.517,360.426,348.506,356.893z"/>
			<path d="M262.365,130.316c-2.717-1.057-5.938-0.374-8,1.687c-4.639,4.635-1.227,12.81,5.3,12.81c3.819,0,7.074-2.982,7.463-6.766
				C267.469,134.721,265.462,131.522,262.365,130.316z"/>
		</g>
	</g>
</g>
<g>
</g>
<g>
</g>
<g>
</g>
<g>
</g>
<g>
</g>
<g>
</g>
<g>
</g>
<g>
</g>
<g>
</g>
<g>
</g>
<g>
</g>
<g>
</g>
<g>
</g>
<g>
</g>
<g>
</g>
</svg>
